<svg id="Capa_1" enable-background="new 0 0 512 512" height="60" viewBox="0 0 512 512" width="60" xmlns="http://www.w3.org/2000/svg"><g><path d="m342.71 0h-264.258c-2.895 0-5.675.497-8.258 1.409l-9.275 23.365v357.224c0 13.682 11.092 24.774 24.774 24.774h257.017c13.682 0 24.774-11.092 24.774-24.774v-357.224c0-13.682-11.092-24.774-24.774-24.774z" fill="#f6efd6"/><path d="m321.304 101.303c0-14.998-16.516-14.998-16.516-29.997 0-15.008 16.516-15.008 16.516-30.016h-206.121c0 15.008-16.516 15.008-16.516 30.016 0 14.998 16.516 14.998 16.516 29.997 0 15.006-16.516 15.006-16.516 30.012 0 15.013 16.516 15.013 16.516 30.025s-16.516 15.013-16.516 30.025c0 15.013 16.516 15.013 16.516 30.026 0 15.009-16.516 15.009-16.516 30.017 0 15.011 16.516 15.011 16.516 30.021 0 15.024-16.516 15.024-16.516 30.047 0 15.034 16.516 15.034 16.516 30.068s-16.516 15.034-16.516 30.068h206.121c0-15.034 16.516-15.034 16.516-30.068s-16.516-15.034-16.516-30.068c0-15.024 16.516-15.024 16.516-30.047 0-15.011-16.516-15.011-16.516-30.021 0-15.009 16.516-15.009 16.516-30.017 0-15.013-16.516-15.013-16.516-30.026s16.516-15.013 16.516-30.025-16.516-15.013-16.516-30.025c0-15.006 16.516-15.006 16.516-30.012z" fill="#ffc2b8"/><g fill="#ff959b"><path d="m263.831 379.871c-4.565 0-8.258-3.694-8.258-8.258 0-11.169 6.331-16.927 10.96-21.137 3.952-3.605 5.556-5.21 5.556-8.927 0-3.726-1.605-5.331-5.565-8.935-4.621-4.21-10.952-9.976-10.952-21.137s6.331-16.927 10.96-21.129c3.952-3.597 5.556-5.21 5.556-8.919 0-3.702-1.605-5.306-5.556-8.895-4.621-4.202-10.96-9.96-10.96-21.121s6.339-16.919 10.96-21.121c3.952-3.589 5.556-5.194 5.556-8.895 0-3.71-1.605-5.315-5.556-8.903-4.621-4.21-10.96-9.968-10.96-21.129 0-11.153 6.339-16.911 10.96-21.121 3.952-3.589 5.556-5.194 5.556-8.903 0-3.702-1.605-5.306-5.556-8.895-4.621-4.21-10.96-9.968-10.96-21.129s6.339-16.919 10.968-21.121c3.944-3.589 5.548-5.194 5.548-8.887s-1.605-5.298-5.548-8.887c-4.629-4.202-10.968-9.96-10.968-21.113 0-11.161 6.339-16.919 10.96-21.121 3.952-3.589 5.556-5.194 5.556-8.895 0-4.565 3.694-8.258 8.258-8.258s8.258 3.694 8.258 8.258c0 11.161-6.339 16.919-10.96 21.121-3.952 3.589-5.556 5.194-5.556 8.895 0 3.694 1.605 5.298 5.548 8.887 4.629 4.202 10.968 9.96 10.968 21.113s-6.339 16.911-10.96 21.113c-3.952 3.589-5.556 5.194-5.556 8.895 0 3.71 1.605 5.315 5.556 8.903 4.621 4.21 10.96 9.968 10.96 21.121 0 11.161-6.339 16.919-10.96 21.129-3.952 3.589-5.556 5.194-5.556 8.895 0 3.71 1.605 5.315 5.556 8.903 4.621 4.21 10.96 9.968 10.96 21.129s-6.339 16.919-10.96 21.121c-3.952 3.589-5.556 5.194-5.556 8.895s1.605 5.306 5.556 8.895c4.621 4.202 10.96 9.96 10.96 21.121s-6.331 16.927-10.96 21.129c-3.952 3.597-5.556 5.21-5.556 8.919 0 3.718 1.605 5.323 5.556 8.927 4.629 4.21 10.96 9.976 10.96 21.145s-6.331 16.927-10.96 21.137c-3.952 3.605-5.556 5.21-5.556 8.927.001 4.564-3.693 8.258-8.257 8.258z"/><path d="m305.121 379.871c-4.565 0-8.258-3.694-8.258-8.258 0-11.169 6.331-16.927 10.96-21.137 3.952-3.605 5.556-5.21 5.556-8.927 0-3.726-1.605-5.331-5.565-8.935-4.621-4.21-10.952-9.976-10.952-21.137s6.331-16.927 10.96-21.129c3.952-3.597 5.556-5.21 5.556-8.919 0-3.702-1.605-5.306-5.556-8.895-4.621-4.202-10.96-9.96-10.96-21.121s6.339-16.919 10.96-21.121c3.952-3.589 5.556-5.194 5.556-8.895 0-3.71-1.605-5.315-5.556-8.903-4.621-4.21-10.96-9.968-10.96-21.129 0-11.153 6.339-16.911 10.96-21.121 3.952-3.589 5.556-5.194 5.556-8.903 0-3.702-1.605-5.306-5.556-8.895-4.621-4.21-10.96-9.968-10.96-21.129s6.339-16.919 10.968-21.121c3.944-3.589 5.548-5.194 5.548-8.887s-1.605-5.298-5.548-8.887c-4.629-4.202-10.968-9.96-10.968-21.113 0-11.161 6.339-16.919 10.96-21.121 3.952-3.589 5.556-5.194 5.556-8.895 0-4.565 3.694-8.258 8.258-8.258s8.258 3.694 8.258 8.258c0 11.161-6.339 16.919-10.96 21.121-3.952 3.589-5.556 5.194-5.556 8.895 0 3.694 1.605 5.298 5.548 8.887 4.629 4.202 10.968 9.96 10.968 21.113s-6.339 16.911-10.96 21.113c-3.952 3.589-5.556 5.194-5.556 8.895 0 3.71 1.605 5.315 5.556 8.903 4.621 4.21 10.96 9.968 10.96 21.121 0 11.161-6.339 16.919-10.96 21.129-3.952 3.589-5.556 5.194-5.556 8.895 0 3.71 1.605 5.315 5.556 8.903 4.621 4.21 10.96 9.968 10.96 21.129s-6.339 16.919-10.96 21.121c-3.952 3.589-5.556 5.194-5.556 8.895s1.605 5.306 5.556 8.895c4.621 4.202 10.96 9.96 10.96 21.121s-6.331 16.927-10.96 21.129c-3.952 3.597-5.556 5.21-5.556 8.919 0 3.718 1.605 5.323 5.556 8.927 4.629 4.21 10.96 9.976 10.96 21.145s-6.331 16.927-10.96 21.137c-3.952 3.605-5.556 5.21-5.556 8.927.001 4.564-3.693 8.258-8.257 8.258z"/><path d="m98.669 379.871c-4.565 0-8.258-3.694-8.258-8.258 0-11.169 6.331-16.927 10.96-21.137 3.952-3.605 5.556-5.21 5.556-8.927 0-3.726-1.605-5.331-5.565-8.935-4.621-4.21-10.952-9.976-10.952-21.137s6.331-16.927 10.96-21.129c3.952-3.597 5.556-5.21 5.556-8.919 0-3.702-1.605-5.306-5.556-8.895-4.621-4.202-10.96-9.96-10.96-21.121s6.339-16.919 10.96-21.121c3.952-3.589 5.556-5.194 5.556-8.895 0-3.71-1.605-5.315-5.556-8.903-4.621-4.21-10.96-9.968-10.96-21.129 0-11.153 6.339-16.911 10.96-21.121 3.952-3.589 5.556-5.194 5.556-8.903 0-3.702-1.605-5.306-5.556-8.895-4.621-4.21-10.96-9.968-10.96-21.129s6.339-16.919 10.968-21.121c3.944-3.589 5.548-5.194 5.548-8.887s-1.605-5.298-5.548-8.887c-4.629-4.202-10.968-9.96-10.968-21.113 0-11.161 6.339-16.919 10.96-21.121 3.952-3.589 5.556-5.194 5.556-8.895 0-4.565 3.694-8.258 8.258-8.258 4.565 0 8.258 3.694 8.258 8.258 0 11.161-6.339 16.919-10.96 21.121-3.952 3.589-5.556 5.194-5.556 8.895 0 3.694 1.605 5.298 5.548 8.887 4.629 4.202 10.968 9.96 10.968 21.113s-6.339 16.911-10.96 21.113c-3.952 3.589-5.556 5.194-5.556 8.895 0 3.71 1.605 5.315 5.556 8.903 4.621 4.21 10.96 9.968 10.96 21.121 0 11.161-6.339 16.919-10.96 21.129-3.952 3.589-5.556 5.194-5.556 8.895 0 3.71 1.605 5.315 5.556 8.903 4.621 4.21 10.96 9.968 10.96 21.129s-6.339 16.919-10.96 21.121c-3.952 3.589-5.556 5.194-5.556 8.895s1.605 5.306 5.556 8.895c4.621 4.202 10.96 9.96 10.96 21.121s-6.331 16.927-10.96 21.129c-3.952 3.597-5.556 5.21-5.556 8.919 0 3.718 1.605 5.323 5.556 8.927 4.629 4.21 10.96 9.976 10.96 21.145s-6.331 16.927-10.96 21.137c-3.952 3.605-5.556 5.21-5.556 8.927.001 4.564-3.692 8.258-8.257 8.258z"/><path d="m139.96 379.871c-4.565 0-8.258-3.694-8.258-8.258 0-11.169 6.331-16.927 10.96-21.137 3.952-3.605 5.556-5.21 5.556-8.927 0-3.726-1.605-5.331-5.565-8.935-4.621-4.21-10.952-9.976-10.952-21.137s6.331-16.927 10.96-21.129c3.952-3.597 5.556-5.21 5.556-8.919 0-3.702-1.605-5.306-5.556-8.895-4.621-4.202-10.96-9.96-10.96-21.121s6.339-16.919 10.96-21.121c3.952-3.589 5.556-5.194 5.556-8.895 0-3.71-1.605-5.315-5.556-8.903-4.621-4.21-10.96-9.968-10.96-21.129 0-11.153 6.339-16.911 10.96-21.121 3.952-3.589 5.556-5.194 5.556-8.903 0-3.702-1.605-5.306-5.556-8.895-4.621-4.21-10.96-9.968-10.96-21.129s6.339-16.919 10.968-21.121c3.944-3.589 5.548-5.194 5.548-8.887s-1.605-5.298-5.548-8.887c-4.629-4.202-10.968-9.96-10.968-21.113 0-11.161 6.339-16.919 10.96-21.121 3.952-3.589 5.556-5.194 5.556-8.895 0-4.565 3.694-8.258 8.258-8.258 4.565 0 8.258 3.694 8.258 8.258 0 11.161-6.339 16.919-10.96 21.121-3.952 3.589-5.556 5.194-5.556 8.895 0 3.694 1.605 5.298 5.548 8.887 4.629 4.202 10.968 9.96 10.968 21.113s-6.339 16.911-10.96 21.113c-3.952 3.589-5.556 5.194-5.556 8.895 0 3.71 1.605 5.315 5.556 8.903 4.621 4.21 10.96 9.968 10.96 21.121 0 11.161-6.339 16.919-10.96 21.129-3.952 3.589-5.556 5.194-5.556 8.895 0 3.71 1.605 5.315 5.556 8.903 4.621 4.21 10.96 9.968 10.96 21.129s-6.339 16.919-10.96 21.121c-3.952 3.589-5.556 5.194-5.556 8.895s1.605 5.306 5.556 8.895c4.621 4.202 10.96 9.96 10.96 21.121s-6.331 16.927-10.96 21.129c-3.952 3.597-5.556 5.21-5.556 8.919 0 3.718 1.605 5.323 5.556 8.927 4.629 4.21 10.96 9.976 10.96 21.145s-6.331 16.927-10.96 21.137c-3.952 3.605-5.556 5.21-5.556 8.927.001 4.564-3.693 8.258-8.257 8.258z"/><path d="m181.25 379.871c-4.565 0-8.258-3.694-8.258-8.258 0-11.169 6.331-16.927 10.96-21.137 3.952-3.605 5.556-5.21 5.556-8.927 0-3.726-1.605-5.331-5.565-8.935-4.621-4.21-10.952-9.976-10.952-21.137s6.331-16.927 10.96-21.129c3.952-3.597 5.556-5.21 5.556-8.919 0-3.702-1.605-5.306-5.556-8.895-4.621-4.202-10.96-9.96-10.96-21.121s6.339-16.919 10.96-21.121c3.952-3.589 5.556-5.194 5.556-8.895 0-3.71-1.605-5.315-5.556-8.903-4.621-4.21-10.96-9.968-10.96-21.129 0-11.153 6.339-16.911 10.96-21.121 3.952-3.589 5.556-5.194 5.556-8.903 0-3.702-1.605-5.306-5.556-8.895-4.621-4.21-10.96-9.968-10.96-21.129s6.339-16.919 10.968-21.121c3.944-3.589 5.548-5.194 5.548-8.887s-1.605-5.298-5.548-8.887c-4.629-4.202-10.968-9.96-10.968-21.113 0-11.161 6.339-16.919 10.96-21.121 3.952-3.589 5.556-5.194 5.556-8.895 0-4.565 3.694-8.258 8.258-8.258s8.258 3.694 8.258 8.258c0 11.161-6.339 16.919-10.96 21.121-3.952 3.589-5.556 5.194-5.556 8.895 0 3.694 1.605 5.298 5.548 8.887 4.629 4.202 10.968 9.96 10.968 21.113s-6.339 16.911-10.96 21.113c-3.952 3.589-5.556 5.194-5.556 8.895 0 3.71 1.605 5.315 5.556 8.903 4.621 4.21 10.96 9.968 10.96 21.121 0 11.161-6.339 16.919-10.96 21.129-3.952 3.589-5.556 5.194-5.556 8.895 0 3.71 1.605 5.315 5.556 8.903 4.621 4.21 10.96 9.968 10.96 21.129s-6.339 16.919-10.96 21.121c-3.952 3.589-5.556 5.194-5.556 8.895s1.605 5.306 5.556 8.895c4.621 4.202 10.96 9.96 10.96 21.121s-6.331 16.927-10.96 21.129c-3.952 3.597-5.556 5.21-5.556 8.919 0 3.718 1.605 5.323 5.556 8.927 4.629 4.21 10.96 9.976 10.96 21.145s-6.331 16.927-10.96 21.137c-3.952 3.605-5.556 5.21-5.556 8.927.001 4.564-3.692 8.258-8.257 8.258z"/><path d="m222.54 379.871c-4.565 0-8.258-3.694-8.258-8.258 0-11.169 6.331-16.927 10.96-21.137 3.952-3.605 5.556-5.21 5.556-8.927 0-3.726-1.605-5.331-5.565-8.935-4.621-4.21-10.952-9.976-10.952-21.137s6.331-16.927 10.96-21.129c3.952-3.597 5.556-5.21 5.556-8.919 0-3.702-1.605-5.306-5.556-8.895-4.621-4.202-10.96-9.96-10.96-21.121s6.339-16.919 10.96-21.121c3.952-3.589 5.556-5.194 5.556-8.895 0-3.71-1.605-5.315-5.556-8.903-4.621-4.21-10.96-9.968-10.96-21.129 0-11.153 6.339-16.911 10.96-21.121 3.952-3.589 5.556-5.194 5.556-8.903 0-3.702-1.605-5.306-5.556-8.895-4.621-4.21-10.96-9.968-10.96-21.129s6.339-16.919 10.968-21.121c3.944-3.589 5.548-5.194 5.548-8.887s-1.605-5.298-5.548-8.887c-4.629-4.202-10.968-9.96-10.968-21.113 0-11.161 6.339-16.919 10.96-21.121 3.952-3.589 5.556-5.194 5.556-8.895 0-4.565 3.694-8.258 8.258-8.258 4.565 0 8.258 3.694 8.258 8.258 0 11.161-6.339 16.919-10.96 21.121-3.952 3.589-5.556 5.194-5.556 8.895 0 3.694 1.605 5.298 5.548 8.887 4.629 4.202 10.968 9.96 10.968 21.113s-6.339 16.911-10.96 21.113c-3.952 3.589-5.556 5.194-5.556 8.895 0 3.71 1.605 5.315 5.556 8.903 4.621 4.21 10.96 9.968 10.96 21.121 0 11.161-6.339 16.919-10.96 21.129-3.952 3.589-5.556 5.194-5.556 8.895 0 3.71 1.605 5.315 5.556 8.903 4.621 4.21 10.96 9.968 10.96 21.129s-6.339 16.919-10.96 21.121c-3.952 3.589-5.556 5.194-5.556 8.895s1.605 5.306 5.556 8.895c4.621 4.202 10.96 9.96 10.96 21.121s-6.331 16.927-10.96 21.129c-3.952 3.597-5.556 5.21-5.556 8.919 0 3.718 1.605 5.323 5.556 8.927 4.629 4.21 10.96 9.976 10.96 21.145s-6.331 16.927-10.96 21.137c-3.952 3.605-5.556 5.21-5.556 8.927.001 4.564-3.692 8.258-8.257 8.258z"/></g><path d="m70.194 388.129v-386.721c-9.6 3.413-16.516 12.595-16.516 23.366v363.355c0 13.682 11.092 24.774 24.774 24.774h264.258c10.771 0 19.844-6.916 23.257-16.516h-287.515c-4.561 0-8.258-3.697-8.258-8.258z" fill="#f3e6c7"/><path d="m458.323 421.161c0 21.93-7.771 42.045-20.71 57.741-16.661 20.212-41.89 28.729-70.129 28.729-50.169 0-87.251-36.302-87.251-86.471 0-28.239 9.297-53.468 29.509-70.129 15.696-12.939 35.811-20.71 57.741-20.71 50.17.002 90.84 40.671 90.84 90.84z" fill="#93d67c"/><path d="m379.871 499.613c-50.169 0-90.839-40.67-90.839-90.839 0-21.93 7.772-42.045 20.71-57.742-20.212 16.661-33.097 41.89-33.097 70.129 0 50.169 40.67 90.839 90.839 90.839 28.239 0 53.468-12.886 70.129-33.097-15.697 12.938-35.812 20.71-57.742 20.71z" fill="#72c77d"/><path d="m411.193 415.275-8.673-8.673v-12.266c0-4.561-3.697-8.258-8.258-8.258h-12.266l-8.673-8.673c-3.225-3.225-8.454-3.225-11.679 0l-8.673 8.673h-8.133l-14.877 35.995 11.944 25.841 34.335 13.992 5.756-5.756h12.266c4.561 0 8.258-3.697 8.258-8.258v-12.265l8.673-8.673c3.225-3.225 3.225-8.454 0-11.679z" fill="#f6efd6"/><path d="m361.726 447.393c-2.323-2.323-5.476-3.629-8.758-3.629h-8.129v-8.137c0-3.286-1.306-6.44-3.629-8.762l-5.758-5.75 5.758-5.75c2.323-2.323 3.629-5.476 3.629-8.762v-20.524h-4.133c-4.561 0-8.258 3.698-8.258 8.258v12.266l-8.673 8.673c-3.225 3.225-3.225 8.454 0 11.678l8.673 8.673v12.266c0 4.561 3.697 8.258 8.258 8.258h12.265l8.673 8.673c3.225 3.225 8.454 3.225 11.678 0l2.917-2.917z" fill="#f3e6c7"/></g></svg>